<svg xmlns="http://www.w3.org/2000/svg" viewBox="0 0 240.86 241.15"><defs><style>.cls-1{fill:#34c1ad;}.cls-2{fill:#f5f5f5;}.cls-3{fill:#13969d;}.cls-4{fill:#107c82;}</style></defs><g id="Layer_2" data-name="Layer 2"><g id="Layer_1-2" data-name="Layer 1"><path class="cls-1" d="M151.3,151.6a43.94,43.94,0,1,1,12.82-31A43.93,43.93,0,0,1,151.3,151.6Z"/><path class="cls-2" d="M225.62,179.33a120.66,120.66,0,0,1-105.34,61.82c-3.73,0-7.35-.22-11-.54a120.42,120.42,0,1,1,116.31-61.28ZM120.28,164.42a43.77,43.77,0,1,0-31-12.82A43.79,43.79,0,0,0,120.28,164.42Z"/><path class="cls-3" d="M120.28,0a120.58,120.58,0,0,0-11,240.61c3.62.32,7.24.54,11,.54A120.58,120.58,0,0,0,120.28,0Zm0,230.19A109.62,109.62,0,1,1,229.89,120.58,109.61,109.61,0,0,1,120.28,230.19Z"/><path class="cls-1" d="M110.63,67.73a139.18,139.18,0,0,0,5-20.73V37.5a4.62,4.62,0,1,1,9.23,0V47a139.18,139.18,0,0,0,5,20.73,53.32,53.32,0,0,1,21.61,9.19A81.61,81.61,0,0,0,171.7,63.58l5.16-5.18h0a8.5,8.5,0,1,1,8.54,8.45h-.14L180.09,72a84,84,0,0,0-13.75,21A53.42,53.42,0,0,1,173.12,111a139.21,139.21,0,0,0,20.73,5h9.5a4.62,4.62,0,1,1,0,9.23h-9.5a138,138,0,0,0-20.73,5,53.42,53.42,0,0,1-6.78,17.91,84,84,0,0,0,13.75,21l5.17,5.17h.09a8.47,8.47,0,1,1-8.49,8.45h0l-5.16-5.18a81.61,81.61,0,0,0-20.17-13.34,53.32,53.32,0,0,1-21.61,9.19,139.18,139.18,0,0,0-5,20.73v9.5a4.62,4.62,0,1,1-9.23,0h0v-9.5a139.18,139.18,0,0,0-5-20.73A53.38,53.38,0,0,1,89,164.32a81.16,81.16,0,0,0-20.16,13.26l-5.17,5.17h0a8.5,8.5,0,1,1-8.54-8.45h.15l5.16-5.16a84.4,84.4,0,0,0,13.78-21,53.58,53.58,0,0,1-6.79-17.91,140.42,140.42,0,0,0-20.73-5H37.2a4.62,4.62,0,1,1,0-9.23h9.5a138,138,0,0,0,20.73-5A53.4,53.4,0,0,1,74.24,93,84.55,84.55,0,0,0,60.48,72l-5.18-5.1h-.1a8.5,8.5,0,0,1-8.5-8.46,7.6,7.6,0,0,1,.19-1.71,8.48,8.48,0,0,1,16.8,1.71h0l5.17,5.18A81.55,81.55,0,0,0,89,76.93,53.34,53.34,0,0,1,110.63,67.73Z"/><circle class="cls-3" cx="120.28" cy="120.58" r="43.85"/><circle class="cls-4" cx="98.35" cy="109.62" r="10.96"/><circle class="cls-4" cx="125.76" cy="104.13" r="5.48"/><circle class="cls-4" cx="131.24" cy="142.5" r="10.96"/></g></g></svg>