<svg xmlns="http://www.w3.org/2000/svg" width="13.547" height="12.316" viewBox="0 0 13.547 12.316">
  <g id="github-logo" transform="translate(0.005 0.005)">
    <path id="Path_3703" data-name="Path 3703" d="M12.629,8.506a6.528,6.528,0,0,0-2.463-2.3,7,7,0,0,0-3.4-.846,7,7,0,0,0-3.4.846A6.528,6.528,0,0,0,.9,8.506a5.972,5.972,0,0,0,.383,6.874,6.62,6.62,0,0,0,3.336,2.279.417.417,0,0,0,.352-.057.311.311,0,0,0,.115-.246V16.182l-.2.033a2.772,2.772,0,0,1-.489.029,3.99,3.99,0,0,1-.612-.058,1.419,1.419,0,0,1-.59-.246,1.048,1.048,0,0,1-.388-.5l-.088-.189a2.033,2.033,0,0,0-.278-.419,1.046,1.046,0,0,0-.383-.312L2,14.479a.632.632,0,0,1-.115-.1.448.448,0,0,1-.079-.115q-.026-.058.044-.1a.609.609,0,0,1,.256-.037l.176.025a1.33,1.33,0,0,1,.436.2,1.368,1.368,0,0,1,.427.427,1.488,1.488,0,0,0,.489.513,1.09,1.09,0,0,0,.577.176,2.684,2.684,0,0,0,.5-.041,1.843,1.843,0,0,0,.4-.123,1.3,1.3,0,0,1,.432-.846,6.435,6.435,0,0,1-.9-.148,3.748,3.748,0,0,1-.828-.32,2.342,2.342,0,0,1-.709-.55,2.581,2.581,0,0,1-.463-.862,3.841,3.841,0,0,1-.181-1.232,2.307,2.307,0,0,1,.7-1.692,2.069,2.069,0,0,1,.062-1.675,1.316,1.316,0,0,1,.758.111A5.486,5.486,0,0,1,4.7,8.4q.234.131.375.222a6.814,6.814,0,0,1,3.384,0l.335-.2a4.9,4.9,0,0,1,.811-.361,1.232,1.232,0,0,1,.714-.09,2.05,2.05,0,0,1,.07,1.675,2.307,2.307,0,0,1,.7,1.692,3.884,3.884,0,0,1-.181,1.236,2.482,2.482,0,0,1-.467.862,2.435,2.435,0,0,1-.714.546,3.755,3.755,0,0,1-.828.32,6.429,6.429,0,0,1-.9.148,1.41,1.41,0,0,1,.458,1.166v1.733a.317.317,0,0,0,.11.246.4.4,0,0,0,.348.057,6.619,6.619,0,0,0,3.336-2.279A5.971,5.971,0,0,0,12.634,8.5Z" transform="translate(0 -5.365)"/>
  </g>
</svg>
